# xmcd
#
# Track frame offsets: 
#        150
#        27883
#        45419
#        64658
#        82451
#        111765
#        137577
#        156282
#        174831
#        189107
#        210247
#        231537
#        253025
#        269375
#        294616
#        306562
#
# Disc length: 4332 seconds
#
# Revision: 0
# Processed by: cddbd v1.5.2PL0 Copyright (c) Steve Scherf et al.
# Submitted via: ExactAudioCopyFreeDBPlugin 1.0
#
DISCID=e310ea10
DTITLE=Walter Trout - Walter Trout
DYEAR=2000
DGENRE=Blues
TTITLE0=Got A Broken Heart
TTITLE1=Obstacies In My Way
TTITLE2=One Way Street
TTITLE3=Tender Heart
TTITLE4=Come Home
TTITLE5=Mary´s Mood
TTITLE6=Hardtime Blues
TTITLE7=In Love With You Again
TTITLE8=Don´t Worry About It
TTITLE9=Song For A Wanderer
TTITLE10=Temptation
TTITLE11=Walking In The Rain
TTITLE12=If You Ever Change Your Mind
TTITLE13=Jules Well
TTITLE14=Let Me Be The One
TTITLE15=Boo
EXTD=
EXTT0=
EXTT1=
EXTT2=
EXTT3=
EXTT4=
EXTT5=
EXTT6=
EXTT7=
EXTT8=
EXTT9=
EXTT10=
EXTT11=
EXTT12=
EXTT13=
EXTT14=
EXTT15=
PLAYORDER=
